/* XPM */
static char * Dial_xpm[] = {
"14 16 2 1",
" 	c None",
".	c #0000FFFF0000",
"  ....        ",
" .......      ",
" .........    ",
"...........   ",
"..... ......  ",
" ...    ..... ",
"   .     .....",
"          ....",
"         .....",
"        ......",
"         .... ",
"          ..  ",
"              ",
"              ",
"              ",
"              "};
