/* XPM */
static char * bronto_xpm[] = {
"72 28 2 1",
".	c Opaque",
" 	c None",
"                           . .                                          ",
"                          . . .                                         ",
"                       .........                                        ",
"                      .    . . ..                                       ",
"                     .          ..                                      ",
"                     .       .. ..                                      ",
"                      ..   ... ..                                       ",
"                       .....  ..                                        ",
"                           .  ..                                        ",
"                            . .                                         ",
"                            . .                                         ",
"                            . .   ....                                  ",
"                            . .  .   ..                                 ",
"                            . . .     ..                                ",
"                            . ..       ..                               ",
"                            . ..       ..                               ",
"                            . ..        ..    .                         ",
"                            .  ..       ..    ..                        ",
"                            .  ..       ..    ..                        ",
"                            .   ..       ..   ...                       ",
"                            .    .       ..  . ..                       ",
"                           .              ...  ..                       ",
"                           .                   ..                       ",
"                         ....   .    ..   .   ..                        ",
"                        . .  .  .   .  .  .   ..                        ",
"                       . .     ... .     ... ..                         ",
"                       . .   .......   .......                          ",
"                        ..........  ........                            "};
