/* XPM */
static char * horse_xpm[] = {
"64 64 3 1",
" 	g None",
".	g #FFFFFF",
"+	g #000000",
"................................................................",
"................................................................",
".............................+.....+............................",
"............................++...++.++..........................",
"...........................+..+..+...++.........................",
"...........................+..++.+...+.+........................",
"..........................+...+.+....+.+........................",
"..........................+...+.+.....+.+.......................",
"..........................+++++.+.....+.+.......................",
"........................+++++++++.....+..++.....................",
"......................++.++.+++++.....+..++++...................",
"......................+++.+++.........+..++..++.................",
"....................+++.+++++..............++..+................",
"...................+....++...................+..+...............",
"...................+..++.....................++.+...............",
".................++............................++...............",
".................+..+...........................++..............",
"....................+............................+..............",
"...................+.....+++.....................+++............",
"...................+.....+..+.............+........+............",
"..................+......+..+..............++.......++..........",
".................+.......+.++..............+.+......+.+.........",
"...............++.........++...............+........++.+........",
"...............+...........................+..........+.+.......",
".............++.....++................................+..+......",
"............+....+++++.................................+..+.....",
"...........+....++..+..................................++.+.....",
".........++...++........................................+..+....",
"........+...............................+................+.++...",
"......+++..............................++................+..+...",
"......+..+...............+.............+.................+...+..",
"......+...++..............+..........++...................+..+..",
"......+....+.............+++.......++.....................+...+.",
"......+..++..+....+.....+...+++++++........................+..+.",
".......++..++....++...+++..........+.......................+..+.",
".........++......+++++.............+.....+......................",
"..........+.....+..................+....+.......................",
"...........+...+...................+.....+......................",
"...........+++++....................+....+......................",
"....................................+....+......................",
"....................................+...........................",
"................................................................",
"..........................+.....................................",
"............++++.........+.+...+++...++..+++....................",
"...........+...+........+......+..+.+.++.+..+..........++.......",
"...........+....+.......+.++...+..+.+..+.+..+.......+++.........",
"...........+....+.......+...+..++.+.+..+.+..+......+............",
"......+++..++..++........+++....++...++..+++.....++.............",
"......+..+..+..+...++..........................++...............",
".....+...++.+++++++.+++......................++.................",
".....+....+.+++++++...+.....................+...................",
".....+....+++++....+...+++................++....................",
".....+...+..++.....+......++............++......................",
"......++++.++++....+........++++.....+++........................",
"...........+.++++++.............+++++...........................",
"..........+...+.................................................",
"..........+...+...........................+....+..+..++..+..+...",
"..........++..+...........................+....+..+.+....+.+....",
"............++............................+....+..+.+...+++.....",
"..........................................+....+..+.+...+++.....",
"..........................................+..+.+++..+...+..+....",
"..........................................+++.......+++.+..++...",
"................................................................",
"................................................................"};
