/* XPM */
static char * anim2_xpm[] = {
"16 16 2 1",
".	g #FFFFFF",
"+	g #000000",
"................",
"..++............",
"..+.++++........",
".+.+++..+.......",
".++..+..+.......",
".++..+..+.......",
"..+++..+........",
"..+....+........",
"...+..++........",
"....++..........",
"................",
"................",
"................",
"................",
"................",
"................"};
