/* XPM */
static char * anim4_xpm[] = {
"16 16 2 1",
".	g #000000",
"+	g #FFFFFF",
".+++++.+++.+++..",
".+++++.+++.++..+",
"..++++.++.++.+++",
".+..++.++.++.+++",
".+++.+.++.+.++++",
"+.++..+++++.++++",
"++..++.....+++..",
"++++++....+.+.++",
"....+......+++++",
"++++++.....+++++",
"++++.+.....+..++",
"+++.++++++++++..",
"+..+++.+.++.++++",
".+++..++.+...+++",
"++++.++.++.++.++",
"++..+++.++.+++.+"};
