/* XPM */
static char *delme[] = {
/* columns rows colors chars-per-pixel */
"72 14 2 1",
"  c opaque",
". c white",
/* pixels */
".....    ..............................................     ............",
"...        ..........................................         ..........",
"..          ........................................           .........",
".            .......................................  ..  ..   .........",
".         ..........................................  . . . .  .........",
"        ............................................   .   .   .........",
"      .......  ...  ...  ...  ...  ...  ...  ...  ..           ..  ...  ",
"      .......  ...  ...  ...  ...  ...  ...  ...  ..           ..  ...  ",
"        ............................................           .........",
".         ..........................................   . . .   .........",
".            .......................................  . . . .  .........",
"..          ........................................           .........",
"...        .........................................  ..   ..  .........",
".....    ........................................... .... .... ........."
};
